<?xml version="1.0" encoding="UTF-8"?> <svg xmlns="http://www.w3.org/2000/svg" xmlns:xlink="http://www.w3.org/1999/xlink" width="921.299" height="226.479" viewBox="0 0 921.299 226.479"><path fill="#EF3745" d="M246.236 113.239c0 62.541-55.122 113.24-123.118 113.24S0 175.78 0 113.239C0 50.699 55.122 0 123.118 0s123.118 50.699 123.118 113.239"></path><path fill="#FFF" d="M246.236 113.839c0 57.08-46.833 103.353-104.605 103.353-57.771 0-104.604-46.272-104.604-103.353 0-57.082 46.833-103.354 104.604-103.354 57.772 0 104.605 46.273 104.605 103.354"></path><path fill="#231F20" d="M141.631 217.692c-57.955 0-105.104-46.588-105.104-103.853 0-57.266 47.149-103.854 105.104-103.854s105.105 46.589 105.105 103.854-47.15 103.853-105.105 103.853zm0-206.707c-57.403 0-104.104 46.14-104.104 102.854 0 56.713 46.701 102.853 104.104 102.853 57.404 0 104.105-46.14 104.105-102.853 0-56.714-46.701-102.854-104.105-102.854z"></path><g fill="#231F20"><path d="M358.603 29.412h-43.584l-29.815 114.023h43.584zM463.432 137.874c10.888-3.706 20.32-11.342 28.296-22.905 7.977-11.563 11.965-24.162 11.965-37.8 0-14.207-4.652-25.718-13.958-34.534-9.306-8.815-24.118-13.222-44.438-13.222h-57.162l-29.151 114.023h73.304c9.875-.001 20.256-1.854 31.144-5.562zm-54.693-19.639l16.142-63.701h13.673c8.608 0 14.575 1.699 17.899 5.094 3.323 3.397 4.984 8.025 4.984 13.884 0 9.905-2.88 19.834-8.641 29.789-5.761 9.956-14.528 14.934-26.302 14.934h-17.755zM559.81 117.457l5.887-22.322h67.987l6.267-23.1h-68.082l4.652-18.123h70.647l6.361-24.5H539.775l-29.721 114.023h119.548l6.836-25.978zM744.02 143.435h42.159L764.055 29.412h-45.862L639.57 143.435h46.338l10.824-18.667h45.389l1.899 18.667zm-33.234-42.856l23.928-41.534h.38l4.273 41.534h-28.581zM852.268 115.59l22.598-86.178h-43.393l-29.531 114.023h112.235l7.122-27.845zM316.306 185.494c-.656-4.757-3.086-8.585-7.292-11.484-4.206-2.9-9.939-4.351-17.198-4.351-6.996 0-12.998 1.294-18.003 3.88-5.005 2.588-8.811 6.146-11.419 10.672-2.608 4.527-3.911 9.034-3.911 13.52 0 5.863 2.194 10.557 6.584 14.082 4.389 3.526 10.737 5.289 19.045 5.289 7.966 0 14.432-1.616 19.399-4.851 4.966-3.233 8.314-7.219 10.043-11.954l-16.667-2.066c-1.415 2.859-3.059 4.977-4.933 6.353-1.874 1.378-4.173 2.066-6.898 2.066-2.962 0-5.216-.767-6.762-2.3-1.546-1.534-2.319-3.438-2.319-5.711 0-2.984.753-6.051 2.26-9.201 1.507-3.15 3.505-5.492 5.995-7.026 2.489-1.532 5.044-2.3 7.665-2.3 2.018 0 3.865.543 5.543 1.627 1.676 1.085 2.516 2.744 2.516 4.977v.251l16.352-1.473zM375.151 175.276c-4.114-3.744-10.561-5.617-19.34-5.617-3.38 0-6.676.271-9.886.813-3.211.543-6.473 1.706-9.788 3.49-3.315 1.783-6.106 3.994-8.373 6.634s-3.97 5.444-5.11 8.418a25.363 25.363 0 00-1.71 9.154c0 5.987 2.306 10.64 6.919 13.957 4.612 3.316 11.032 4.976 19.261 4.976 3.59 0 6.983-.339 10.181-1.017 3.197-.679 6.531-2.023 10.004-4.037 3.472-2.014 6.296-4.465 8.471-7.354 2.175-2.889 3.642-5.685 4.403-8.387.759-2.702 1.139-5.106 1.139-7.213 0-5.466-2.057-10.072-6.171-13.817zm-12.933 20.467c-1.1 3.141-2.849 5.742-5.247 7.809-2.398 2.064-5.314 3.098-8.746 3.098-3.067 0-5.464-.771-7.194-2.316-1.73-1.543-2.594-3.483-2.594-5.82 0-2.211.589-4.887 1.769-8.027 1.179-3.139 2.941-5.653 5.287-7.542 2.344-1.888 5.142-2.832 8.392-2.832 2.909 0 5.3.751 7.174 2.253 1.873 1.502 2.81 3.725 2.81 6.666 0 1.333-.55 3.571-1.651 6.711zM427.628 197.166h-.157l-14.191-26.725h-16.667l-12.382 45.878h16.746l7.154-26.663h.157l14.269 26.663h16.667l12.383-45.878h-16.746zM514.146 170.441h-54.481l-2.988 11.266h17.886l-9.355 34.612h17.885l9.395-34.612h18.711zM570.869 182.489c0-3.316-1.312-6.153-3.932-8.511-2.62-2.358-6.761-3.537-12.421-3.537h-32.783l-12.226 45.878h17.886l4.913-18.651h.944c1.519 0 2.816.313 3.891.938s2.68 2.906 4.816 6.838c2.135 3.934 3.989 7.558 5.562 10.875h18.828c-5.03-10.515-9.354-16.94-12.971-19.278 6.105-.751 10.547-2.466 13.325-5.146s4.168-5.817 4.168-9.406zm-18.16 3.865c-.813.992-2.052 1.696-3.715 2.113-1.665.417-5.326.626-10.987.626h-3.38l2.476-9.358h9.041c3.249 0 5.359.334 6.328 1.002.97.668 1.455 1.586 1.455 2.754 0 .918-.407 1.873-1.218 2.863zM600.075 170.441l-32.547 45.878h19.183l4.48-7.511h18.791l.785 7.511h17.453l-9.159-45.878h-18.986zm-3.065 28.635l9.905-16.712h.157l1.77 16.712H597.01zM690.879 185.494c-.655-4.757-3.086-8.585-7.292-11.484-4.206-2.9-9.938-4.351-17.197-4.351-6.997 0-12.999 1.294-18.004 3.88-5.006 2.588-8.812 6.146-11.419 10.672-2.608 4.527-3.911 9.034-3.911 13.52 0 5.863 2.194 10.557 6.584 14.082 4.39 3.526 10.737 5.289 19.045 5.289 7.967 0 14.433-1.616 19.399-4.851 4.966-3.233 8.314-7.219 10.043-11.954l-16.667-2.066c-1.415 2.859-3.06 4.977-4.933 6.353-1.874 1.378-4.174 2.066-6.899 2.066-2.961 0-5.215-.767-6.761-2.3-1.547-1.534-2.319-3.438-2.319-5.711 0-2.984.753-6.051 2.261-9.201 1.507-3.15 3.504-5.492 5.994-7.026 2.489-1.532 5.045-2.3 7.665-2.3 2.018 0 3.865.543 5.543 1.627 1.677 1.085 2.516 2.744 2.516 4.977v.251l16.352-1.473zM754.599 170.441h-54.483l-2.987 11.266h17.886l-9.356 34.612h17.886l9.394-34.612h18.711zM750.745 216.319h18.043l12.343-45.878h-18.043zM824.607 197.166h-.158l-14.19-26.725h-16.667l-12.382 45.878h16.745l7.154-26.663h.158l14.268 26.663h16.667l12.383-45.878h-16.746zM885.221 179.798c4.899 0 8.149 1.814 9.748 5.444l17.532-1.532c-2.962-9.367-11.256-14.052-24.883-14.052-6.97 0-13.148 1.194-18.534 3.583-5.385 2.39-9.559 5.742-12.52 10.062-2.962 4.318-4.442 9.064-4.442 14.239 0 6.195 2.326 11.005 6.978 14.427s10.947 5.132 18.888 5.132c8.806 0 17.689-1.773 26.651-5.32l5.778-21.562H883.53l-2.595 9.576h10.889l-1.297 4.912c-2.778 1.504-6.002 2.255-9.67 2.255h-.157c-3.224 0-5.877-.861-7.96-2.582-2.084-1.722-3.125-3.854-3.125-6.4 0-4.401 1.401-8.532 4.206-12.393 2.804-3.859 6.604-5.789 11.4-5.789z"></path></g><defs><ellipse id="prefix__a" cx="172.5" cy="112.479" rx="94" ry="86.5"></ellipse></defs><clipPath id="prefix__b"><use xlink:href="#prefix__a" overflow="visible"></use></clipPath><path clip-path="url(#prefix__b)" fill="#3BA651" d="M78.5 25.979h188v173h-188z"></path><circle clip-path="url(#prefix__b)" fill="#3BA651" cx="172.5" cy="112.479" r="90.328"></circle><circle clip-path="url(#prefix__b)" fill="#3CA652" cx="172.5" cy="112.479" r="89.867"></circle><circle clip-path="url(#prefix__b)" fill="#3DA753" cx="172.5" cy="112.479" r="89.406"></circle><circle clip-path="url(#prefix__b)" fill="#3EA754" cx="172.5" cy="112.479" r="88.945"></circle><circle clip-path="url(#prefix__b)" fill="#3FA855" cx="172.5" cy="112.479" r="88.484"></circle><circle clip-path="url(#prefix__b)" fill="#40A855" cx="172.5" cy="112.479" r="88.023"></circle><circle clip-path="url(#prefix__b)" fill="#41A956" cx="172.5" cy="112.479" r="87.563"></circle><circle clip-path="url(#prefix__b)" fill="#42A957" cx="172.5" cy="112.479" r="87.102"></circle><circle clip-path="url(#prefix__b)" fill="#43AA58" cx="172.5" cy="112.479" r="86.641"></circle><circle clip-path="url(#prefix__b)" fill="#44AA59" cx="172.5" cy="112.479" r="86.18"></circle><circle clip-path="url(#prefix__b)" fill="#45AB5A" cx="172.5" cy="112.479" r="85.719"></circle><circle clip-path="url(#prefix__b)" fill="#46AB5B" cx="172.5" cy="112.479" r="85.258"></circle><circle clip-path="url(#prefix__b)" fill="#47AB5C" cx="172.5" cy="112.479" r="84.797"></circle><circle clip-path="url(#prefix__b)" fill="#48AC5D" cx="172.5" cy="112.479" r="84.336"></circle><circle clip-path="url(#prefix__b)" fill="#49AC5D" cx="172.5" cy="112.479" r="83.875"></circle><circle clip-path="url(#prefix__b)" fill="#4AAD5E" cx="172.5" cy="112.479" r="83.414"></circle><circle clip-path="url(#prefix__b)" fill="#4BAD5F" cx="172.5" cy="112.479" r="82.953"></circle><circle clip-path="url(#prefix__b)" fill="#4CAE60" cx="172.5" cy="112.479" r="82.492"></circle><circle clip-path="url(#prefix__b)" fill="#4DAE61" cx="172.5" cy="112.479" r="82.031"></circle><circle clip-path="url(#prefix__b)" fill="#4EAF62" cx="172.5" cy="112.479" r="81.57"></circle><circle clip-path="url(#prefix__b)" fill="#4FAF63" cx="172.5" cy="112.479" r="81.109"></circle><circle clip-path="url(#prefix__b)" fill="#50B064" cx="172.5" cy="112.479" r="80.648"></circle><circle clip-path="url(#prefix__b)" fill="#51B065" cx="172.5" cy="112.479" r="80.188"></circle><circle clip-path="url(#prefix__b)" fill="#52B066" cx="172.5" cy="112.479" r="79.727"></circle><circle clip-path="url(#prefix__b)" fill="#53B166" cx="172.5" cy="112.479" r="79.266"></circle><circle clip-path="url(#prefix__b)" fill="#54B167" cx="172.5" cy="112.479" r="78.805"></circle><circle clip-path="url(#prefix__b)" fill="#55B268" cx="172.5" cy="112.479" r="78.344"></circle><circle clip-path="url(#prefix__b)" fill="#56B269" cx="172.5" cy="112.479" r="77.883"></circle><path clip-path="url(#prefix__b)" fill="#57B36A" d="M249.922 112.479c0 42.758-34.66 77.422-77.422 77.422s-77.422-34.664-77.422-77.422c0-42.762 34.66-77.422 77.422-77.422s77.422 34.66 77.422 77.422z"></path><path clip-path="url(#prefix__b)" fill="#58B36B" d="M249.461 112.479c0 42.508-34.457 76.961-76.961 76.961s-76.961-34.453-76.961-76.961c0-42.504 34.457-76.961 76.961-76.961s76.961 34.457 76.961 76.961z"></path><circle clip-path="url(#prefix__b)" fill="#59B46C" cx="172.5" cy="112.479" r="76.5"></circle><circle clip-path="url(#prefix__b)" fill="#5AB46D" cx="172.5" cy="112.479" r="76.043"></circle><circle clip-path="url(#prefix__b)" fill="#5BB56E" cx="172.5" cy="112.479" r="75.582"></circle><circle clip-path="url(#prefix__b)" fill="#5CB56E" cx="172.5" cy="112.479" r="75.121"></circle><circle clip-path="url(#prefix__b)" fill="#5DB66F" cx="172.5" cy="112.479" r="74.66"></circle><circle clip-path="url(#prefix__b)" fill="#5EB670" cx="172.5" cy="112.479" r="74.199"></circle><circle clip-path="url(#prefix__b)" fill="#5FB671" cx="172.5" cy="112.479" r="73.738"></circle><circle clip-path="url(#prefix__b)" fill="#60B772" cx="172.5" cy="112.479" r="73.277"></circle><circle clip-path="url(#prefix__b)" fill="#61B773" cx="172.5" cy="112.479" r="72.816"></circle><circle clip-path="url(#prefix__b)" fill="#62B874" cx="172.5" cy="112.479" r="72.355"></circle><circle clip-path="url(#prefix__b)" fill="#63B875" cx="172.5" cy="112.479" r="71.895"></circle><circle clip-path="url(#prefix__b)" fill="#64B976" cx="172.5" cy="112.479" r="71.434"></circle><circle clip-path="url(#prefix__b)" fill="#65B976" cx="172.5" cy="112.479" r="70.973"></circle><circle clip-path="url(#prefix__b)" fill="#66BA77" cx="172.5" cy="112.479" r="70.512"></circle><circle clip-path="url(#prefix__b)" fill="#67BA78" cx="172.5" cy="112.479" r="70.051"></circle><circle clip-path="url(#prefix__b)" fill="#68BB79" cx="172.5" cy="112.479" r="69.59"></circle><circle clip-path="url(#prefix__b)" fill="#69BB7A" cx="172.5" cy="112.479" r="69.129"></circle><circle clip-path="url(#prefix__b)" fill="#6ABB7B" cx="172.5" cy="112.479" r="68.668"></circle><circle clip-path="url(#prefix__b)" fill="#6BBC7C" cx="172.5" cy="112.479" r="68.207"></circle><circle clip-path="url(#prefix__b)" fill="#6CBC7D" cx="172.5" cy="112.479" r="67.746"></circle><circle clip-path="url(#prefix__b)" fill="#6DBD7E" cx="172.5" cy="112.479" r="67.285"></circle><circle clip-path="url(#prefix__b)" fill="#6EBD7F" cx="172.5" cy="112.479" r="66.824"></circle><circle clip-path="url(#prefix__b)" fill="#6FBE7F" cx="172.5" cy="112.479" r="66.363"></circle><circle clip-path="url(#prefix__b)" fill="#70BE80" cx="172.5" cy="112.479" r="65.902"></circle><circle clip-path="url(#prefix__b)" fill="#71BF81" cx="172.5" cy="112.479" r="65.441"></circle><circle clip-path="url(#prefix__b)" fill="#72BF82" cx="172.5" cy="112.479" r="64.98"></circle><circle clip-path="url(#prefix__b)" fill="#73C083" cx="172.5" cy="112.479" r="64.52"></circle><circle clip-path="url(#prefix__b)" fill="#74C084" cx="172.5" cy="112.479" r="64.059"></circle><circle clip-path="url(#prefix__b)" fill="#75C085" cx="172.5" cy="112.479" r="63.598"></circle><circle clip-path="url(#prefix__b)" fill="#76C186" cx="172.5" cy="112.479" r="63.137"></circle><circle clip-path="url(#prefix__b)" fill="#77C187" cx="172.5" cy="112.479" r="62.676"></circle><circle clip-path="url(#prefix__b)" fill="#78C287" cx="172.5" cy="112.479" r="62.215"></circle><circle clip-path="url(#prefix__b)" fill="#79C288" cx="172.5" cy="112.479" r="61.754"></circle><circle clip-path="url(#prefix__b)" fill="#7AC389" cx="172.5" cy="112.479" r="61.293"></circle><circle clip-path="url(#prefix__b)" fill="#7BC38A" cx="172.5" cy="112.479" r="60.832"></circle><circle clip-path="url(#prefix__b)" fill="#7CC48B" cx="172.5" cy="112.479" r="60.371"></circle><circle clip-path="url(#prefix__b)" fill="#7DC48C" cx="172.5" cy="112.479" r="59.91"></circle><path clip-path="url(#prefix__b)" fill="#7EC58D" d="M231.949 112.479c0 32.836-26.617 59.449-59.449 59.449s-59.449-26.613-59.449-59.449c0-32.832 26.617-59.449 59.449-59.449s59.449 26.617 59.449 59.449z"></path><circle clip-path="url(#prefix__b)" fill="#7FC58E" cx="172.5" cy="112.479" r="58.988"></circle><circle clip-path="url(#prefix__b)" fill="#80C58F" cx="172.5" cy="112.479" r="58.527"></circle><circle clip-path="url(#prefix__b)" fill="#81C68F" cx="172.5" cy="112.479" r="58.066"></circle><circle clip-path="url(#prefix__b)" fill="#82C690" cx="172.5" cy="112.479" r="57.605"></circle><circle clip-path="url(#prefix__b)" fill="#83C791" cx="172.5" cy="112.479" r="57.145"></circle><path clip-path="url(#prefix__b)" fill="#84C792" d="M229.188 112.479c0 31.305-25.383 56.688-56.688 56.688s-56.688-25.383-56.688-56.688 25.383-56.688 56.688-56.688 56.688 25.383 56.688 56.688z"></path><circle clip-path="url(#prefix__b)" fill="#85C893" cx="172.5" cy="112.479" r="56.227"></circle><circle clip-path="url(#prefix__b)" fill="#86C894" cx="172.5" cy="112.479" r="55.766"></circle><circle clip-path="url(#prefix__b)" fill="#87C995" cx="172.5" cy="112.479" r="55.305"></circle><circle clip-path="url(#prefix__b)" fill="#88C996" cx="172.5" cy="112.479" r="54.844"></circle><circle clip-path="url(#prefix__b)" fill="#89CA97" cx="172.5" cy="112.479" r="54.383"></circle><circle clip-path="url(#prefix__b)" fill="#8ACA97" cx="172.5" cy="112.479" r="53.922"></circle><circle clip-path="url(#prefix__b)" fill="#8BCB98" cx="172.5" cy="112.479" r="53.461"></circle><circle clip-path="url(#prefix__b)" fill="#8CCB99" cx="172.5" cy="112.479" r="53"></circle><circle clip-path="url(#prefix__b)" fill="#8DCB9A" cx="172.5" cy="112.479" r="52.539"></circle><circle clip-path="url(#prefix__b)" fill="#8ECC9B" cx="172.5" cy="112.479" r="52.078"></circle><circle clip-path="url(#prefix__b)" fill="#8FCC9C" cx="172.5" cy="112.479" r="51.617"></circle><path clip-path="url(#prefix__b)" fill="#90CD9D" d="M223.656 112.479c0 28.25-22.906 51.156-51.156 51.156s-51.156-22.906-51.156-51.156S144.25 61.323 172.5 61.323s51.156 22.906 51.156 51.156z"></path><circle clip-path="url(#prefix__b)" fill="#91CD9E" cx="172.5" cy="112.479" r="50.695"></circle><circle clip-path="url(#prefix__b)" fill="#92CE9F" cx="172.5" cy="112.479" r="50.234"></circle><circle clip-path="url(#prefix__b)" fill="#93CEA0" cx="172.5" cy="112.479" r="49.773"></circle><circle clip-path="url(#prefix__b)" fill="#94CFA0" cx="172.5" cy="112.479" r="49.313"></circle><circle clip-path="url(#prefix__b)" fill="#95CFA1" cx="172.5" cy="112.479" r="48.852"></circle><circle clip-path="url(#prefix__b)" fill="#96D0A2" cx="172.5" cy="112.479" r="48.391"></circle><circle clip-path="url(#prefix__b)" fill="#97D0A3" cx="172.5" cy="112.479" r="47.93"></circle><circle clip-path="url(#prefix__b)" fill="#98D0A4" cx="172.5" cy="112.479" r="47.469"></circle><circle clip-path="url(#prefix__b)" fill="#99D1A5" cx="172.5" cy="112.479" r="47.008"></circle><circle clip-path="url(#prefix__b)" fill="#9AD1A6" cx="172.5" cy="112.479" r="46.547"></circle><circle clip-path="url(#prefix__b)" fill="#9BD2A7" cx="172.5" cy="112.479" r="46.086"></circle><circle clip-path="url(#prefix__b)" fill="#9CD2A8" cx="172.5" cy="112.479" r="45.625"></circle><circle clip-path="url(#prefix__b)" fill="#9ED3A8" cx="172.5" cy="112.479" r="45.164"></circle><circle clip-path="url(#prefix__b)" fill="#9FD3A9" cx="172.5" cy="112.479" r="44.703"></circle><circle clip-path="url(#prefix__b)" fill="#A0D4AA" cx="172.5" cy="112.479" r="44.242"></circle><circle clip-path="url(#prefix__b)" fill="#A1D4AB" cx="172.5" cy="112.479" r="43.781"></circle><circle clip-path="url(#prefix__b)" fill="#A2D5AC" cx="172.5" cy="112.479" r="43.32"></circle><circle clip-path="url(#prefix__b)" fill="#A3D5AD" cx="172.5" cy="112.479" r="42.859"></circle><circle clip-path="url(#prefix__b)" fill="#A4D5AE" cx="172.5" cy="112.479" r="42.398"></circle><circle clip-path="url(#prefix__b)" fill="#A5D6AF" cx="172.5" cy="112.479" r="41.938"></circle><circle clip-path="url(#prefix__b)" fill="#A6D6B0" cx="172.5" cy="112.479" r="41.477"></circle><circle clip-path="url(#prefix__b)" fill="#A7D7B0" cx="172.5" cy="112.479" r="41.016"></circle><circle clip-path="url(#prefix__b)" fill="#A8D7B1" cx="172.5" cy="112.479" r="40.555"></circle><circle clip-path="url(#prefix__b)" fill="#A9D8B2" cx="172.5" cy="112.479" r="40.094"></circle><circle clip-path="url(#prefix__b)" fill="#AAD8B3" cx="172.5" cy="112.479" r="39.633"></circle><circle clip-path="url(#prefix__b)" fill="#ABD9B4" cx="172.5" cy="112.479" r="39.172"></circle><circle clip-path="url(#prefix__b)" fill="#ACD9B5" cx="172.5" cy="112.479" r="38.711"></circle><circle clip-path="url(#prefix__b)" fill="#ADDAB6" cx="172.5" cy="112.479" r="38.25"></circle><circle clip-path="url(#prefix__b)" fill="#AEDAB7" cx="172.5" cy="112.479" r="37.789"></circle><circle clip-path="url(#prefix__b)" fill="#AFDAB8" cx="172.5" cy="112.479" r="37.328"></circle><circle clip-path="url(#prefix__b)" fill="#B0DBB9" cx="172.5" cy="112.479" r="36.867"></circle><circle clip-path="url(#prefix__b)" fill="#B1DBB9" cx="172.5" cy="112.479" r="36.406"></circle><circle clip-path="url(#prefix__b)" fill="#B2DCBA" cx="172.5" cy="112.479" r="35.945"></circle><circle clip-path="url(#prefix__b)" fill="#B3DCBB" cx="172.5" cy="112.479" r="35.484"></circle><circle clip-path="url(#prefix__b)" fill="#B4DDBC" cx="172.5" cy="112.479" r="35.023"></circle><circle clip-path="url(#prefix__b)" fill="#B5DDBD" cx="172.5" cy="112.479" r="34.563"></circle><circle clip-path="url(#prefix__b)" fill="#B6DEBE" cx="172.5" cy="112.479" r="34.102"></circle><circle clip-path="url(#prefix__b)" fill="#B7DEBF" cx="172.5" cy="112.479" r="33.641"></circle><path clip-path="url(#prefix__b)" fill="#B8DFC0" d="M205.68 112.479c0 18.328-14.855 33.18-33.18 33.18s-33.18-14.852-33.18-33.18c0-18.324 14.855-33.18 33.18-33.18s33.18 14.856 33.18 33.18z"></path><circle clip-path="url(#prefix__b)" fill="#B9DFC1" cx="172.5" cy="112.479" r="32.719"></circle><circle clip-path="url(#prefix__b)" fill="#BAE0C1" cx="172.5" cy="112.479" r="32.258"></circle><circle clip-path="url(#prefix__b)" fill="#BBE0C2" cx="172.5" cy="112.479" r="31.801"></circle><circle clip-path="url(#prefix__b)" fill="#BCE0C3" cx="172.5" cy="112.479" r="31.34"></circle><path clip-path="url(#prefix__b)" fill="#BDE1C4" d="M203.379 112.479c0 17.055-13.824 30.875-30.879 30.875s-30.879-13.82-30.879-30.875S155.445 81.6 172.5 81.6s30.879 13.824 30.879 30.879z"></path><circle clip-path="url(#prefix__b)" fill="#BEE1C5" cx="172.5" cy="112.479" r="30.418"></circle><circle clip-path="url(#prefix__b)" fill="#BFE2C6" cx="172.5" cy="112.479" r="29.957"></circle><circle clip-path="url(#prefix__b)" fill="#C0E2C7" cx="172.5" cy="112.479" r="29.496"></circle><circle clip-path="url(#prefix__b)" fill="#C1E3C8" cx="172.5" cy="112.479" r="29.035"></circle><circle clip-path="url(#prefix__b)" fill="#C2E3C9" cx="172.5" cy="112.479" r="28.574"></circle><circle clip-path="url(#prefix__b)" fill="#C3E4C9" cx="172.5" cy="112.479" r="28.113"></circle><circle clip-path="url(#prefix__b)" fill="#C4E4CA" cx="172.5" cy="112.479" r="27.652"></circle><circle clip-path="url(#prefix__b)" fill="#C5E5CB" cx="172.5" cy="112.479" r="27.191"></circle><circle clip-path="url(#prefix__b)" fill="#C6E5CC" cx="172.5" cy="112.479" r="26.73"></circle><circle clip-path="url(#prefix__b)" fill="#C7E5CD" cx="172.5" cy="112.479" r="26.27"></circle><circle clip-path="url(#prefix__b)" fill="#C8E6CE" cx="172.5" cy="112.479" r="25.809"></circle><circle clip-path="url(#prefix__b)" fill="#C9E6CF" cx="172.5" cy="112.479" r="25.348"></circle><circle clip-path="url(#prefix__b)" fill="#CAE7D0" cx="172.5" cy="112.479" r="24.887"></circle><circle clip-path="url(#prefix__b)" fill="#CBE7D1" cx="172.5" cy="112.479" r="24.426"></circle><circle clip-path="url(#prefix__b)" fill="#CCE8D1" cx="172.5" cy="112.479" r="23.965"></circle><circle clip-path="url(#prefix__b)" fill="#CDE8D2" cx="172.5" cy="112.479" r="23.504"></circle><circle clip-path="url(#prefix__b)" fill="#CEE9D3" cx="172.5" cy="112.479" r="23.043"></circle><circle clip-path="url(#prefix__b)" fill="#CFE9D4" cx="172.5" cy="112.479" r="22.582"></circle><circle clip-path="url(#prefix__b)" fill="#D0EAD5" cx="172.5" cy="112.479" r="22.121"></circle><circle clip-path="url(#prefix__b)" fill="#D1EAD6" cx="172.5" cy="112.479" r="21.66"></circle><circle clip-path="url(#prefix__b)" fill="#D2EAD7" cx="172.5" cy="112.479" r="21.199"></circle><circle clip-path="url(#prefix__b)" fill="#D3EBD8" cx="172.5" cy="112.479" r="20.738"></circle><circle clip-path="url(#prefix__b)" fill="#D4EBD9" cx="172.5" cy="112.479" r="20.277"></circle><circle clip-path="url(#prefix__b)" fill="#D5ECDA" cx="172.5" cy="112.479" r="19.816"></circle><circle clip-path="url(#prefix__b)" fill="#D6ECDA" cx="172.5" cy="112.479" r="19.355"></circle><circle clip-path="url(#prefix__b)" fill="#D7EDDB" cx="172.5" cy="112.479" r="18.895"></circle><circle clip-path="url(#prefix__b)" fill="#D8EDDC" cx="172.5" cy="112.479" r="18.434"></circle><circle clip-path="url(#prefix__b)" fill="#D9EEDD" cx="172.5" cy="112.479" r="17.973"></circle><circle clip-path="url(#prefix__b)" fill="#DAEEDE" cx="172.5" cy="112.479" r="17.512"></circle><circle clip-path="url(#prefix__b)" fill="#DBEFDF" cx="172.5" cy="112.479" r="17.051"></circle><circle clip-path="url(#prefix__b)" fill="#DCEFE0" cx="172.5" cy="112.479" r="16.59"></circle><circle clip-path="url(#prefix__b)" fill="#DDEFE1" cx="172.5" cy="112.479" r="16.129"></circle><path clip-path="url(#prefix__b)" fill="#DEF0E2" d="M188.168 112.479c0 8.656-7.016 15.668-15.668 15.668s-15.668-7.012-15.668-15.668c0-8.652 7.016-15.668 15.668-15.668s15.668 7.016 15.668 15.668z"></path><circle clip-path="url(#prefix__b)" fill="#DFF0E2" cx="172.5" cy="112.479" r="15.207"></circle><circle clip-path="url(#prefix__b)" fill="#E0F1E3" cx="172.5" cy="112.479" r="14.746"></circle><circle clip-path="url(#prefix__b)" fill="#E1F1E4" cx="172.5" cy="112.479" r="14.285"></circle><circle clip-path="url(#prefix__b)" fill="#E2F2E5" cx="172.5" cy="112.479" r="13.824"></circle><circle clip-path="url(#prefix__b)" fill="#E3F2E6" cx="172.5" cy="112.479" r="13.363"></circle><path clip-path="url(#prefix__b)" fill="#E4F3E7" d="M185.402 112.479c0 7.125-5.777 12.906-12.902 12.906s-12.902-5.781-12.902-12.906 5.777-12.902 12.902-12.902 12.902 5.777 12.902 12.902z"></path><circle clip-path="url(#prefix__b)" fill="#E5F3E8" cx="172.5" cy="112.479" r="12.445"></circle><circle clip-path="url(#prefix__b)" fill="#E6F4E9" cx="172.5" cy="112.479" r="11.984"></circle><circle clip-path="url(#prefix__b)" fill="#E7F4EA" cx="172.5" cy="112.479" r="11.523"></circle><circle clip-path="url(#prefix__b)" fill="#E8F5EA" cx="172.5" cy="112.479" r="11.063"></circle><circle clip-path="url(#prefix__b)" fill="#E9F5EB" cx="172.5" cy="112.479" r="10.602"></circle><circle clip-path="url(#prefix__b)" fill="#EAF5EC" cx="172.5" cy="112.479" r="10.141"></circle><circle clip-path="url(#prefix__b)" fill="#EBF6ED" cx="172.5" cy="112.479" r="9.68"></circle><circle clip-path="url(#prefix__b)" fill="#ECF6EE" cx="172.5" cy="112.479" r="9.219"></circle><circle clip-path="url(#prefix__b)" fill="#EDF7EF" cx="172.5" cy="112.479" r="8.758"></circle><circle clip-path="url(#prefix__b)" fill="#EEF7F0" cx="172.5" cy="112.479" r="8.297"></circle><circle clip-path="url(#prefix__b)" fill="#EFF8F1" cx="172.5" cy="112.479" r="7.836"></circle><path clip-path="url(#prefix__b)" fill="#F0F8F2" d="M179.875 112.479c0 4.07-3.305 7.375-7.375 7.375s-7.375-3.305-7.375-7.375 3.305-7.375 7.375-7.375 7.375 3.305 7.375 7.375z"></path><circle clip-path="url(#prefix__b)" fill="#F1F9F3" cx="172.5" cy="112.479" r="6.914"></circle><circle clip-path="url(#prefix__b)" fill="#F2F9F3" cx="172.5" cy="112.479" r="6.453"></circle><circle clip-path="url(#prefix__b)" fill="#F3FAF4" cx="172.5" cy="112.479" r="5.992"></circle><circle clip-path="url(#prefix__b)" fill="#F4FAF5" cx="172.5" cy="112.479" r="5.531"></circle><circle clip-path="url(#prefix__b)" fill="#F5FAF6" cx="172.5" cy="112.479" r="5.07"></circle><circle clip-path="url(#prefix__b)" fill="#F6FBF7" cx="172.5" cy="112.479" r="4.609"></circle><circle clip-path="url(#prefix__b)" fill="#F7FBF8" cx="172.5" cy="112.479" r="4.148"></circle><circle clip-path="url(#prefix__b)" fill="#F8FCF9" cx="172.5" cy="112.479" r="3.688"></circle><circle clip-path="url(#prefix__b)" fill="#F9FCFA" cx="172.5" cy="112.479" r="3.227"></circle><circle clip-path="url(#prefix__b)" fill="#FAFDFB" cx="172.5" cy="112.479" r="2.766"></circle><circle clip-path="url(#prefix__b)" fill="#FBFDFB" cx="172.5" cy="112.479" r="2.305"></circle><circle clip-path="url(#prefix__b)" fill="#FCFEFC" cx="172.5" cy="112.479" r="1.844"></circle><circle clip-path="url(#prefix__b)" fill="#FDFEFD" cx="172.5" cy="112.479" r="1.383"></circle><circle clip-path="url(#prefix__b)" fill="#FEFFFE" cx="172.5" cy="112.479" r=".922"></circle><circle clip-path="url(#prefix__b)" fill="#FFF" cx="172.5" cy="112.479" r=".461"></circle></svg> 